<svg xmlns="http://www.w3.org/2000/svg" viewBox="0 0 512 512" fill="none">
  <rect width="512" height="512" rx="96" fill="#0f172a"/>
  <path d="M256 128c-35.3 0-64 28.7-64 64v128c0 35.3 28.7 64 64 64s64-28.7 64-64V192c0-35.3-28.7-64-64-64z" fill="#f8fafc"/>
  <path d="M256 96c-53 0-96 43-96 96v96c0 53 43 96 96 96s96-43 96-96v-96c0-53-43-96-96-96zm0 32c35.3 0 64 28.7 64 64v128c0 35.3-28.7 64-64 64s-64-28.7-64-64V192c0-35.3 28.7-64 64-64z" fill="#f8fafc"/>
  <path d="M192 256h128v32H192z" fill="#94a3b8"/>
  <path d="M208 288h96v16h-96z" fill="#64748b"/>
</svg>
